<svg id="Layer_1" data-name="Layer 1" xmlns="http://www.w3.org/2000/svg" viewBox="0 0 49.98 50"><defs><style>.cls-1{fill:#252525;}.cls-2{fill:#3d5af1;}.cls-3{fill:#22d1ee;}</style></defs><title>Artboard 1</title><path class="cls-1" d="M22,45a.31.31,0,0,1-.13,0l-17-7.45a.3.3,0,0,1-.19-.29.32.32,0,0,1,.19-.3l17.72-7.66a.28.28,0,0,1,.25,0l17.92,7.66a.33.33,0,0,1,.2.3.34.34,0,0,1-.2.3L27.09,43.32a.32.32,0,1,1-.25-.59l13-5.49-17.1-7.32L5.83,37.24l16.33,7.15a.32.32,0,0,1,.17.42A.35.35,0,0,1,22,45Z"/><path class="cls-1" d="M5,37.56a.29.29,0,0,1-.23-.1.32.32,0,0,1-.06-.36L18.89,7.5a.32.32,0,0,1,.58.28L5.68,36.6l16.93-7.32a.28.28,0,0,1,.25,0l1.41.6a.32.32,0,0,1,.17.42.32.32,0,0,1-.42.17l-1.29-.55L5.15,37.53A.31.31,0,0,1,5,37.56Zm35.63,0-.12,0L29,32.58A.32.32,0,1,1,29.2,32L40,36.6,22.68,1.06l-.89,1.88a.33.33,0,0,1-.43.15.32.32,0,0,1-.15-.43L22.39.18A.32.32,0,0,1,22.68,0h0A.31.31,0,0,1,23,.18l18,36.92a.32.32,0,0,1,0,.36A.31.31,0,0,1,40.65,37.56Z"/><path class="cls-2" d="M35.11,50H1.63a.32.32,0,0,1,0-.64H35.11a.32.32,0,0,1,0,.64Z"/><path class="cls-2" d="M44.4,47.24H21.23a.33.33,0,0,1,0-.65H44.4a.33.33,0,0,1,0,.65Z"/><path class="cls-3" d="M49.67,47.24h-2.9a.33.33,0,0,1,0-.65h2.9a.33.33,0,0,1,0,.65Z"/><path class="cls-3" d="M11.29,47.32H.31a.32.32,0,1,1,0-.64h11a.32.32,0,1,1,0,.64Z"/><path class="cls-1" d="M35.05,16.51H30.41a.31.31,0,0,1-.29-.18l-2.8-5.75a.36.36,0,0,1,0-.32.35.35,0,0,1,.28-.15h7.44a.32.32,0,0,1,.32.32v5.76A.32.32,0,0,1,35.05,16.51Zm-4.44-.65h4.12v-5.1H28.12Zm-15.52.65H8.88a.33.33,0,0,1-.16-.05L3.81,13.59a.32.32,0,0,1-.16-.28A.33.33,0,0,1,3.81,13l4.91-2.87a.33.33,0,0,1,.16-.05h9a.35.35,0,0,1,.28.15.31.31,0,0,1,0,.31l-2.75,5.76A.31.31,0,0,1,15.09,16.51ZM9,15.86h5.92l2.44-5.1H9L4.61,13.31Z"/><path class="cls-1" d="M37,16.51H35.05a.33.33,0,0,1-.32-.32V10.43a.33.33,0,0,1,.32-.32H37a.32.32,0,0,1,.32.32v5.76A.32.32,0,0,1,37,16.51Zm-1.61-.65h1.29v-5.1H35.37Z"/><path class="cls-1" d="M39.34,16.51H37a.32.32,0,0,1-.32-.32V10.43a.32.32,0,0,1,.32-.32h2.36A2.69,2.69,0,0,1,42,12.8v1A2.69,2.69,0,0,1,39.34,16.51Zm-2-.65h2a2,2,0,0,0,2-2v-1a2,2,0,0,0-2-2h-2Z"/><path class="cls-1" d="M13.38,15.17a.32.32,0,0,1-.32-.32V10.43a.33.33,0,0,1,.65,0v4.42A.33.33,0,0,1,13.38,15.17Z"/><path class="cls-1" d="M35.05,13.63H29A.32.32,0,1,1,29,13h6a.32.32,0,0,1,0,.64Z"/><path class="cls-1" d="M41.92,26.23H35.14a.33.33,0,0,1-.29-.18l-3.63-7.46a.36.36,0,0,1,0-.32.35.35,0,0,1,.28-.15H41.92a.32.32,0,0,1,.32.32v7.47A.31.31,0,0,1,41.92,26.23Zm-6.58-.64H41.6V18.77H32Zm-24.9.64H3.75a.32.32,0,0,1-.32-.32V18.44a.32.32,0,0,1,.32-.32H14a.32.32,0,0,1,.29.46l-3.57,7.47A.32.32,0,0,1,10.44,26.23Zm-6.37-.64h6.17l3.26-6.82H4.07Z"/><path class="cls-1" d="M39.32,22a.32.32,0,0,1-.33-.32V18.44a.33.33,0,0,1,.65,0v3.19A.32.32,0,0,1,39.32,22Z"/><path class="cls-1" d="M37.07,23.34a.32.32,0,0,1-.32-.32V18.44a.32.32,0,0,1,.64,0V23A.32.32,0,0,1,37.07,23.34Z"/><path class="cls-1" d="M34.91,22a.32.32,0,0,1-.33-.32V18.44a.33.33,0,0,1,.65,0v3.19A.32.32,0,0,1,34.91,22Z"/><path class="cls-1" d="M10.61,23.34a.32.32,0,0,1-.33-.32V18.44a.33.33,0,0,1,.65,0V23A.32.32,0,0,1,10.61,23.34Z"/><path class="cls-1" d="M8.44,22a.32.32,0,0,1-.32-.32V18.44a.32.32,0,0,1,.64,0v3.19A.32.32,0,0,1,8.44,22Z"/><path class="cls-1" d="M6.2,23.34A.32.32,0,0,1,5.87,23V18.44a.33.33,0,0,1,.65,0V23A.32.32,0,0,1,6.2,23.34Z"/><path class="cls-1" d="M22.73,29.89a.32.32,0,0,1-.32-.32L22.36.32A.32.32,0,0,1,22.68,0h0A.32.32,0,0,1,23,.32l.06,29.25a.32.32,0,0,1-.33.32Z"/></svg>