<svg id="Layer_1" data-name="Layer 1" xmlns="http://www.w3.org/2000/svg" viewBox="0 0 49.98 50"><defs><style>.cls-1{fill:#22d1ee;}.cls-2{fill:#252525;}.cls-3{fill:#3d5af1;}</style></defs><title>Artboard 1</title><path class="cls-1" d="M19.9,23.5H7.9a.32.32,0,1,1,0-.64h12a.32.32,0,0,1,0,.64Z"/><path class="cls-1" d="M19.9,25.42H7.9a.33.33,0,0,1,0-.65h12a.33.33,0,0,1,0,.65Z"/><path class="cls-2" d="M40.57,37.63H27.64a.33.33,0,0,1,0-.65H40.57a1.92,1.92,0,0,0,1.91-1.91V27.9H29.18a.32.32,0,1,1,0-.64H42.8a.31.31,0,0,1,.32.32v7.49A2.56,2.56,0,0,1,40.57,37.63Zm-15.08,0a.33.33,0,0,1,0-.65.33.33,0,0,1,0,.65Zm-2.14,0H4.83a2.57,2.57,0,0,1-2.55-2.56V19.53a.33.33,0,0,1,.65,0V35.07A1.91,1.91,0,0,0,4.83,37H23.35a.33.33,0,0,1,.32.32v0A.33.33,0,0,1,23.35,37.63Zm3.79-10.11a.34.34,0,0,1-.17-.05.31.31,0,0,1-.14-.2.29.29,0,0,1,0-.24.32.32,0,0,1,.27-.16.34.34,0,0,1,.17.05.33.33,0,0,1-.17.6Zm-1.82-1.14a.34.34,0,0,1-.17-.05l-.85-.53a.32.32,0,0,1-.15-.28.31.31,0,0,1,.15-.27l3.28-2.06a.33.33,0,0,1,.17,0H42.48V9.34a1.92,1.92,0,0,0-1.91-1.91H37.24a.32.32,0,0,1,0-.64h3.33a2.55,2.55,0,0,1,2.55,2.55V23.47a.31.31,0,0,1-.09.22.29.29,0,0,1-.23.1h-15l-2.76,1.73.41.26a.32.32,0,0,1,.15.21.35.35,0,0,1-.05.24A.32.32,0,0,1,25.32,26.38ZM2.6,17.71a.32.32,0,1,1,.33-.32A.32.32,0,0,1,2.6,17.71Zm0-2.15a.32.32,0,0,1-.32-.32V9.34A2.56,2.56,0,0,1,4.83,6.79H33a.32.32,0,0,1,0,.64H4.83a1.91,1.91,0,0,0-1.9,1.91v5.9h0A.32.32,0,0,1,2.6,15.56ZM35.1,7.43a.32.32,0,1,1,.32-.32A.32.32,0,0,1,35.1,7.43Z"/><path class="cls-2" d="M11.29,30.71a.33.33,0,1,1,0-.65h28.9V27.9H35a.32.32,0,0,1,0-.64h5.52a.31.31,0,0,1,.22.09.33.33,0,0,1,.1.23v2.81a.32.32,0,0,1-.1.22.28.28,0,0,1-.22.1Zm-2.15,0a.33.33,0,1,1,.32-.32A.32.32,0,0,1,9.14,30.71ZM7,30.71H4.8a.34.34,0,0,1-.32-.32v-21a.33.33,0,0,1,.1-.23.31.31,0,0,1,.22-.09H19.15a.32.32,0,1,1,0,.64h-14V30.06H7a.33.33,0,0,1,.33.33.34.34,0,0,1-.32.32ZM32.85,27.9a.32.32,0,0,1,0-.64.32.32,0,0,1,0,.64Zm-2.14,0h-3a.34.34,0,0,1-.17,0L24.3,25.8a.32.32,0,0,1-.15-.28.31.31,0,0,1,.15-.27l3.28-2.06a.33.33,0,0,1,.17,0H40.19V9.7H23.44a.32.32,0,1,1,0-.64H40.52a.31.31,0,0,1,.22.09.33.33,0,0,1,.1.23V23.47a.32.32,0,0,1-.1.22.28.28,0,0,1-.22.1H27.84l-2.76,1.73,2.76,1.74h2.87a.32.32,0,0,1,0,.64ZM21.29,9.7a.32.32,0,1,1,0-.64h0a.32.32,0,1,1,0,.64Z"/><path class="cls-2" d="M29.19,44.88h-13a.32.32,0,0,1-.26-.12.35.35,0,0,1-.06-.28l1.92-7.26a.31.31,0,0,1,.31-.24h9.15a.33.33,0,0,1,.31.24l1.91,7.26a.35.35,0,0,1-.06.28A.3.3,0,0,1,29.19,44.88Zm-12.56-.64H28.77L27,37.63H18.38Z"/><path class="cls-2" d="M23.57,46.65a.33.33,0,0,1,0-.65h11V44.88H10.81V46h8.47a.33.33,0,0,1,0,.65h-8.8a.34.34,0,0,1-.32-.32V44.56a.34.34,0,0,1,.1-.23.31.31,0,0,1,.22-.09H34.92a.32.32,0,0,1,.23.09.33.33,0,0,1,.09.23v1.77a.31.31,0,0,1-.09.22.33.33,0,0,1-.23.1Zm-2.14,0a.33.33,0,1,1,.32-.32A.33.33,0,0,1,21.43,46.65Z"/><path class="cls-2" d="M22.7,36.14h0a1.16,1.16,0,1,1,0-2.32h0a1.16,1.16,0,1,1,0,2.32Zm0-1.68a.53.53,0,0,0-.52.52.52.52,0,0,0,.52.52.52.52,0,0,0,.52-.52.52.52,0,0,0-.52-.52Z"/><path class="cls-2" d="M29.84,48.33H2.39A.32.32,0,0,1,2.07,48a.32.32,0,0,1,.32-.32H29.84a.32.32,0,1,1,0,.64Z"/><path class="cls-2" d="M37.47,50h-19a.33.33,0,0,1-.33-.32.32.32,0,0,1,.33-.32h19a.32.32,0,0,1,.32.32A.33.33,0,0,1,37.47,50Z"/><path class="cls-2" d="M41.78,50H39.41a.32.32,0,0,1-.32-.32.32.32,0,0,1,.32-.32h2.37a.32.32,0,0,1,.33.32A.33.33,0,0,1,41.78,50Z"/><path class="cls-2" d="M10.31,50h-9a.33.33,0,0,1,0-.65h9a.33.33,0,0,1,0,.65Z"/><path class="cls-2" d="M40.8,7.44H24a.31.31,0,0,1-.27-.15.31.31,0,0,1,0-.31,2.59,2.59,0,0,1,2-1.44A.32.32,0,0,1,26,5.8a.31.31,0,0,1-.27.36,2,2,0,0,0-1.17.63H40.2l-.09-.09A.33.33,0,0,1,40,6.4a2.07,2.07,0,0,0,0-.5,2.35,2.35,0,0,0-2.35-2.35,2.47,2.47,0,0,0-.89.17.31.31,0,0,1-.32,0,.32.32,0,0,1-.12-.3,2.53,2.53,0,0,0,0-.38A2.38,2.38,0,0,0,34.06.64a2.34,2.34,0,0,0-2,1.11.33.33,0,0,1-.27.15.34.34,0,0,1-.17,0,2,2,0,0,0-1-.29h0a2,2,0,0,0-1.94,1.65.33.33,0,0,1-.32.27h-.08a.32.32,0,0,1-.32-.32h0a.33.33,0,0,1,.13-.26A2.65,2.65,0,0,1,29,1.48,2.59,2.59,0,0,1,30.6.92h0a2.63,2.63,0,0,1,1.1.24A3,3,0,0,1,34.06,0a3,3,0,0,1,2.12.87A3,3,0,0,1,37.06,3a3,3,0,0,1,.66-.08,3,3,0,0,1,2.12.88,3,3,0,0,1,.88,2.12,2.49,2.49,0,0,1,0,.47,2.25,2.25,0,0,1,.41.61.3.3,0,0,1,0,.33A.34.34,0,0,1,40.8,7.44Zm-14.37-3h0a.35.35,0,0,1-.18-.05.33.33,0,0,1-.14-.21.34.34,0,0,1,.06-.24.33.33,0,0,1,.45-.08.32.32,0,0,1-.19.58Z"/><path class="cls-2" d="M.32,18.79A.32.32,0,0,1,0,18.47v-11A2.81,2.81,0,0,1,2.8,4.63H9.14a.33.33,0,0,1,0,.65H2.8A2.17,2.17,0,0,0,.64,7.44v11h0A.32.32,0,0,1,.32,18.79Zm44.76-6.37a.32.32,0,0,1-.32-.32V7.44A2.16,2.16,0,0,0,42.6,5.28a.33.33,0,0,1,0-.65,2.81,2.81,0,0,1,2.8,2.81V12.1A.32.32,0,0,1,45.08,12.42Z"/><path class="cls-3" d="M16,19.93H11.07a.32.32,0,0,1-.23-.09.33.33,0,0,1-.1-.23V14.69a.34.34,0,0,1,.33-.33H16a.33.33,0,0,1,.23.1.32.32,0,0,1,.09.23v4.92a.31.31,0,0,1-.32.32Zm-4.6-.64h4.28V15H11.39Z"/><path class="cls-1" d="M25.66,19.93h-6a.33.33,0,0,1-.28-.16.35.35,0,0,1,0-.33l3-4.92a.33.33,0,0,1,.28-.16.3.3,0,0,1,.27.16l3,4.92a.35.35,0,0,1,0,.33A.33.33,0,0,1,25.66,19.93Zm-5.42-.64h4.84l-2.42-4Z"/><path class="cls-3" d="M31.79,19.84h0a2.79,2.79,0,1,1,0-5.57h0a2.79,2.79,0,0,1,0,5.57Zm0-4.93a2.14,2.14,0,1,0,2.14,2.14,2.14,2.14,0,0,0-2.14-2.14Z"/><path class="cls-2" d="M45.22,27.9h-16a.32.32,0,0,1,0-.64H44.9V23.79H27.84l-2.76,1.73.47.3a.33.33,0,0,1,.15.27.34.34,0,0,1-.05.17.31.31,0,0,1-.27.15.33.33,0,0,1-.17,0l-.91-.57a.32.32,0,0,1-.15-.28.31.31,0,0,1,.15-.27l3.28-2.05a.34.34,0,0,1,.17-.05H45.22a.31.31,0,0,1,.32.32v4.11a.31.31,0,0,1-.32.32Zm-18-.34h0a.34.34,0,0,1-.17,0,.33.33,0,0,1-.15-.2.35.35,0,0,1,0-.25.35.35,0,0,1,.28-.15.34.34,0,0,1,.17.05.32.32,0,0,1,.1.44A.32.32,0,0,1,27.2,27.56Z"/><path class="cls-2" d="M46.5,27.9H45.22a.32.32,0,0,1-.23-.09.33.33,0,0,1-.09-.23V23.47a.33.33,0,0,1,.09-.23.32.32,0,0,1,.23-.09H46.5a.32.32,0,0,1,.23.09.34.34,0,0,1,.1.23v4.11a.34.34,0,0,1-.1.23A.32.32,0,0,1,46.5,27.9Zm-1-.64h.64V23.79h-.64Z"/><path class="cls-2" d="M48.08,27.9H46.5a.31.31,0,0,1-.22-.09.34.34,0,0,1-.1-.23V23.47a.34.34,0,0,1,.1-.23.31.31,0,0,1,.22-.09h1.58a1.9,1.9,0,0,1,1.9,1.9V26A1.9,1.9,0,0,1,48.08,27.9Zm-1.25-.64h1.25A1.26,1.26,0,0,0,49.33,26v-.95a1.26,1.26,0,0,0-1.25-1.26H46.83Z"/><path class="cls-2" d="M30.75,27.9a.32.32,0,0,1-.32-.32V24.42a.33.33,0,0,1,.32-.32.32.32,0,0,1,.32.32v3.16A.32.32,0,0,1,30.75,27.9Z"/><path class="cls-2" d="M45.22,25.84H34.84a.32.32,0,0,1-.32-.32.33.33,0,0,1,.32-.32H45.22a.33.33,0,0,1,.32.32A.32.32,0,0,1,45.22,25.84Z"/><path class="cls-2" d="M17.07,41.65H2.81a.33.33,0,0,1,0-.65H17.07a.33.33,0,0,1,0,.65Z"/><path class="cls-2" d="M42.58,41.65H28.32a.33.33,0,0,1,0-.65H42.58a.33.33,0,0,1,0,.65Z"/></svg>