<svg xmlns="http://www.w3.org/2000/svg" viewBox="0 0 40 40"><defs><style>.cls-1{fill:#3d5af1;}</style></defs><title>Asset 1</title><g id="Layer_2" data-name="Layer 2"><g id="Layer_1-2" data-name="Layer 1"><path class="cls-1" d="M35.71,0H4.29A4.29,4.29,0,0,0,0,4.29V35.71A4.29,4.29,0,0,0,4.29,40H16.54V26.4H10.92V20h5.62V15.12c0-5.55,3.3-8.61,8.36-8.61a34.18,34.18,0,0,1,5,.43v5.45H27.07c-2.75,0-3.61,1.7-3.61,3.45V20H29.6l-1,6.4H23.46V40H35.71A4.29,4.29,0,0,0,40,35.71V4.29A4.29,4.29,0,0,0,35.71,0Z"/></g></g></svg>