<svg id="Layer_1" data-name="Layer 1" xmlns="http://www.w3.org/2000/svg" viewBox="0 0 40 40"><defs><style>.cls-1{fill:#3d5af1;}</style></defs><title>Artboard 1</title><path class="cls-1" d="M20,15.24A4.76,4.76,0,1,0,24.76,20,4.76,4.76,0,0,0,20,15.24Zm11.13-3.66a4.8,4.8,0,0,0-2.71-2.72c-1.88-.74-6.34-.57-8.42-.57s-6.54-.17-8.42.57a4.82,4.82,0,0,0-2.72,2.72c-.74,1.87-.57,6.34-.57,8.42s-.16,6.54.58,8.42a4.83,4.83,0,0,0,2.71,2.72c1.88.74,6.34.57,8.42.57s6.54.17,8.42-.57a4.82,4.82,0,0,0,2.72-2.72c.74-1.87.57-6.34.57-8.42s.17-6.54-.57-8.42ZM20,27.32A7.32,7.32,0,1,1,27.32,20,7.32,7.32,0,0,1,20,27.32Zm7.62-13.24a1.71,1.71,0,1,1,1.71-1.71h0a1.7,1.7,0,0,1-1.7,1.71h0ZM35.71,0H4.29A4.29,4.29,0,0,0,0,4.29V35.71A4.29,4.29,0,0,0,4.29,40H35.71A4.29,4.29,0,0,0,40,35.71V4.29A4.29,4.29,0,0,0,35.71,0ZM34.19,25.89a8.54,8.54,0,0,1-2.31,6,8.53,8.53,0,0,1-6,2.3c-2.36.14-9.43.14-11.79,0a8.51,8.51,0,0,1-6-2.3,8.46,8.46,0,0,1-2.31-6c-.13-2.36-.13-9.43,0-11.78a8.42,8.42,0,0,1,2.31-6,8.49,8.49,0,0,1,6-2.31c2.36-.13,9.43-.13,11.79,0a8.54,8.54,0,0,1,6,2.31,8.54,8.54,0,0,1,2.31,6C34.32,16.47,34.32,23.53,34.19,25.89Z"/></svg>